<svg width="41" height="41" viewBox="0 0 41 41" fill="none" xmlns="http://www.w3.org/2000/svg">
<g filter="url(#filter0_b_471_8)">
<circle cx="20.6091" cy="20.75" r="20.25" fill="white" fill-opacity="0.29"/>
</g>
<path d="M29.2023 17.1909C29.1618 16.2729 29.0134 15.6418 28.8007 15.0949C28.5813 14.5144 28.2438 13.9947 27.8016 13.5626C27.3696 13.1239 26.8464 12.7829 26.2726 12.567C25.7226 12.3543 25.0948 12.2059 24.1767 12.1654C23.2519 12.1215 22.9583 12.1113 20.6125 12.1113C18.2668 12.1113 17.9732 12.1215 17.0518 12.162C16.1337 12.2024 15.5026 12.351 14.9559 12.5635C14.3752 12.7829 13.8555 13.1204 13.4235 13.5626C12.9847 13.9947 12.6439 14.5178 12.4278 15.0916C12.2152 15.6418 12.0667 16.2695 12.0262 17.1875C11.9823 18.1124 11.9722 18.406 11.9722 20.7517C11.9722 23.0974 11.9823 23.391 12.0228 24.3125C12.0633 25.2305 12.2119 25.8616 12.4245 26.4085C12.6439 26.989 12.9847 27.5087 13.4235 27.9408C13.8555 28.3795 14.3787 28.7205 14.9524 28.9364C15.5026 29.1491 16.1303 29.2975 17.0485 29.338C17.9698 29.3786 18.2635 29.3886 20.6092 29.3886C22.955 29.3886 23.2486 29.3786 24.17 29.338C25.088 29.2975 25.7192 29.1491 26.2659 28.9364C27.427 28.4875 28.3451 27.5695 28.794 26.4085C29.0065 25.8583 29.1551 25.2305 29.1956 24.3125C29.236 23.391 29.2462 23.0974 29.2462 20.7517C29.2462 18.406 29.2428 18.1124 29.2023 17.1909ZM27.6464 24.245C27.6092 25.0888 27.4675 25.5444 27.3494 25.8482C27.0591 26.6009 26.4617 27.1982 25.709 27.4885C25.4052 27.6067 24.9463 27.7484 24.1058 27.7855C23.1945 27.8261 22.9212 27.8361 20.616 27.8361C18.3107 27.8361 18.034 27.8261 17.126 27.7855C16.2822 27.7484 15.8266 27.6067 15.5228 27.4885C15.1482 27.3501 14.8073 27.1307 14.5306 26.8438C14.2437 26.5637 14.0243 26.2262 13.8858 25.8516C13.7677 25.5478 13.626 25.0888 13.5889 24.2484C13.5483 23.3371 13.5383 23.0637 13.5383 20.7584C13.5383 18.4532 13.5483 18.1764 13.5889 17.2686C13.626 16.4248 13.7677 15.9691 13.8858 15.6654C14.0243 15.2907 14.2437 14.9499 14.534 14.673C14.814 14.3861 15.1515 14.1667 15.5262 14.0284C15.83 13.9103 16.2891 13.7686 17.1294 13.7314C18.0407 13.6909 18.3141 13.6808 20.6193 13.6808C22.9279 13.6808 23.2013 13.6909 24.1092 13.7314C24.953 13.7686 25.4087 13.9103 25.7124 14.0284C26.087 14.1667 26.4279 14.3861 26.7047 14.673C26.9916 14.9532 27.211 15.2907 27.3494 15.6654C27.4675 15.9691 27.6092 16.4281 27.6464 17.2686C27.6869 18.1799 27.6971 18.4532 27.6971 20.7584C27.6971 23.0637 27.6869 23.3337 27.6464 24.245Z" fill="white"/>
<path d="M20.6126 16.3135C18.1624 16.3135 16.1743 18.3014 16.1743 20.7518C16.1743 23.2022 18.1624 25.1901 20.6126 25.1901C23.063 25.1901 25.051 23.2022 25.051 20.7518C25.051 18.3014 23.063 16.3135 20.6126 16.3135ZM20.6126 23.6308C19.023 23.6308 17.7336 22.3415 17.7336 20.7518C17.7336 19.162 19.023 17.8728 20.6126 17.8728C22.2024 17.8728 23.4917 19.162 23.4917 20.7518C23.4917 22.3415 22.2024 23.6308 20.6126 23.6308V23.6308Z" fill="white"/>
<path d="M26.2626 16.1377C26.2626 16.7099 25.7987 17.1738 25.2263 17.1738C24.6541 17.1738 24.1902 16.7099 24.1902 16.1377C24.1902 15.5654 24.6541 15.1016 25.2263 15.1016C25.7987 15.1016 26.2626 15.5654 26.2626 16.1377V16.1377Z" fill="white"/>
<defs>
<filter id="filter0_b_471_8" x="-9.64087" y="-9.5" width="60.5" height="60.5" filterUnits="userSpaceOnUse" color-interpolation-filters="sRGB">
<feFlood flood-opacity="0" result="BackgroundImageFix"/>
<feGaussianBlur in="BackgroundImage" stdDeviation="5"/>
<feComposite in2="SourceAlpha" operator="in" result="effect1_backgroundBlur_471_8"/>
<feBlend mode="normal" in="SourceGraphic" in2="effect1_backgroundBlur_471_8" result="shape"/>
</filter>
</defs>
</svg>
