<svg width="42" height="41" viewBox="0 0 42 41" fill="none" xmlns="http://www.w3.org/2000/svg">
<g filter="url(#filter0_b_471_7)">
<circle cx="21.1091" cy="20.75" r="20.25" fill="white" fill-opacity="0.29"/>
</g>
<path d="M29.7059 15.4194C29.0665 15.6999 28.3852 15.8858 27.6749 15.976C28.4056 15.5397 28.9634 14.8542 29.2255 14.0278C28.5443 14.434 27.7921 14.7209 26.9904 14.881C26.3435 14.1922 25.4216 13.7656 24.4158 13.7656C22.4643 13.7656 20.8933 15.3495 20.8933 17.2913C20.8933 17.5707 20.9169 17.8393 20.975 18.0951C18.0446 17.9522 15.4517 16.5477 13.7098 14.4082C13.4057 14.9358 13.2273 15.5397 13.2273 16.1899C13.2273 17.4106 13.8559 18.4927 14.7929 19.1192C14.2266 19.1084 13.6711 18.944 13.2004 18.685C13.2004 18.6958 13.2004 18.7097 13.2004 18.7237C13.2004 20.4366 14.4222 21.8593 16.0244 22.1871C15.7375 22.2655 15.4248 22.3031 15.1003 22.3031C14.8746 22.3031 14.6468 22.2902 14.433 22.2429C14.8897 23.6388 16.1856 24.665 17.7265 24.6983C16.5273 25.6364 15.0046 26.2017 13.3562 26.2017C13.0672 26.2017 12.7899 26.1888 12.5127 26.1533C14.0741 27.1602 15.9245 27.7351 17.92 27.7351C24.4061 27.7351 27.9522 22.3622 27.9522 17.705C27.9522 17.5492 27.9468 17.3988 27.9393 17.2494C28.6388 16.7529 29.2266 16.1329 29.7059 15.4194Z" fill="white"/>
<defs>
<filter id="filter0_b_471_7" x="-9.14087" y="-9.5" width="60.5" height="60.5" filterUnits="userSpaceOnUse" color-interpolation-filters="sRGB">
<feFlood flood-opacity="0" result="BackgroundImageFix"/>
<feGaussianBlur in="BackgroundImage" stdDeviation="5"/>
<feComposite in2="SourceAlpha" operator="in" result="effect1_backgroundBlur_471_7"/>
<feBlend mode="normal" in="SourceGraphic" in2="effect1_backgroundBlur_471_7" result="shape"/>
</filter>
</defs>
</svg>
