<svg width="42" height="41" viewBox="0 0 42 41" fill="none" xmlns="http://www.w3.org/2000/svg">
<g filter="url(#filter0_b_471_9)">
<circle cx="21.1091" cy="20.75" r="20.25" fill="white" fill-opacity="0.29"/>
</g>
<path d="M21.1084 27.5023C21.1068 27.5023 21.1051 27.5023 21.1034 27.5023C20.5395 27.4984 15.5546 27.4529 14.1422 27.071C13.1552 26.8057 12.3761 26.0274 12.11 25.0402C11.7405 23.6528 11.764 20.9817 11.7666 20.7684C11.7641 20.5561 11.7403 17.8629 12.1089 16.4641C12.1093 16.4628 12.1096 16.4614 12.11 16.4601C12.3731 15.4842 13.1698 14.6818 14.1398 14.4158C14.1422 14.4151 14.1448 14.4145 14.1472 14.4138C15.5436 14.0468 20.5384 14.0019 21.1034 13.998H21.1135C21.6788 14.0019 26.677 14.0474 28.0763 14.4299C29.0608 14.6945 29.8394 15.4718 30.1061 16.4577C30.4895 17.8575 30.454 20.5565 30.4502 20.7844C30.4529 21.0088 30.4753 23.6559 30.1079 25.0503C30.1076 25.0517 30.1071 25.053 30.1069 25.0543C29.8407 26.0415 29.0617 26.8198 28.0735 27.0854C28.0722 27.0858 28.0708 27.0861 28.0695 27.0865C26.6733 27.4534 21.6784 27.4983 21.1135 27.5023C21.1118 27.5023 21.1101 27.5023 21.1084 27.5023V27.5023ZM13.5201 16.8385C13.1956 18.0732 13.2262 20.7321 13.2265 20.7589V20.7781C13.2168 21.5155 13.2509 23.6509 13.5202 24.6624C13.6508 25.1467 14.035 25.5303 14.5223 25.6614C15.5644 25.9432 19.6245 26.0319 21.1084 26.0423C22.5961 26.0319 26.6621 25.9457 27.6965 25.6751C28.1823 25.5436 28.5652 25.1612 28.6967 24.6763C28.9663 23.6501 29.0001 21.525 28.9902 20.7924C28.9902 20.7847 28.9902 20.777 28.9904 20.7693C29.0038 20.023 28.9774 17.8626 28.6979 16.8431C28.6977 16.8421 28.6974 16.8411 28.6972 16.8401C28.5661 16.3536 28.1817 15.97 27.6944 15.8389C26.6624 15.5568 22.5958 15.4684 21.1084 15.458C19.6216 15.4684 15.5596 15.5545 14.5221 15.8248C14.044 15.9574 13.6511 16.3548 13.5201 16.8385V16.8385ZM29.402 24.8644H29.4024H29.402ZM19.2476 23.7064V17.7938L24.3575 20.7502L19.2476 23.7064Z" fill="white"/>
<defs>
<filter id="filter0_b_471_9" x="-9.14087" y="-9.5" width="60.5" height="60.5" filterUnits="userSpaceOnUse" color-interpolation-filters="sRGB">
<feFlood flood-opacity="0" result="BackgroundImageFix"/>
<feGaussianBlur in="BackgroundImage" stdDeviation="5"/>
<feComposite in2="SourceAlpha" operator="in" result="effect1_backgroundBlur_471_9"/>
<feBlend mode="normal" in="SourceGraphic" in2="effect1_backgroundBlur_471_9" result="shape"/>
</filter>
</defs>
</svg>
