<svg width="203" height="110" viewBox="0 0 203 110" fill="none" xmlns="http://www.w3.org/2000/svg">
<path d="M153.046 53.6341C125.321 83.7239 77.8109 83.7239 50.0865 53.6341L8.40273 8.3939C5.45065 5.18995 7.72323 0.00584235 12.0798 0.00584273L191.052 0.00585838C195.409 0.00585876 197.681 5.18996 194.729 8.3939L153.046 53.6341Z" fill="#1F37FF"/>
<path d="M100.006 44.4236C98.4649 42.7017 97.6161 40.4798 97.6161 38.1674C97.6161 32.9934 101.825 28.7841 106.999 28.7841C109.17 28.7841 111.231 29.5341 112.87 30.8485C114.509 29.5341 116.57 28.7841 118.741 28.7841C118.902 28.7841 119.062 28.7882 119.221 28.7962C119.094 22.6244 114.034 17.6426 107.833 17.6426C104.364 17.6426 101.125 19.2207 98.9828 21.8631C96.8409 19.2207 93.6014 17.6426 90.1329 17.6426C83.8515 17.6426 78.7415 22.7528 78.7415 29.034C78.7415 31.8414 79.7717 34.5385 81.6424 36.6286C83.509 38.7141 98.9826 53.3686 98.9826 53.3686C98.9826 53.3686 101.714 50.8732 104.148 48.5381C102.218 46.666 100.509 44.9857 100.006 44.4236Z" fill="white"/>
<path d="M112.87 53.1309C112.87 53.1306 122.48 43.9622 123.697 42.6018C124.75 41.4253 125.391 39.8717 125.391 38.1685C125.391 34.4958 122.413 31.5186 118.741 31.5186C116.228 31.5186 114.041 32.9132 112.91 34.97H112.83C111.699 32.9132 109.512 31.5186 106.999 31.5186C103.327 31.5186 100.349 34.4958 100.349 38.1685C100.349 39.8717 100.99 41.4253 102.043 42.6018C103.26 43.9622 112.87 53.1307 112.87 53.1309Z" fill="white"/>
</svg>
