<svg width="203" height="111" viewBox="0 0 203 111" fill="none" xmlns="http://www.w3.org/2000/svg">
<path d="M153.046 54.1302C125.321 84.22 77.8109 84.22 50.0865 54.1302L8.40273 8.88999C5.45065 5.68604 7.72323 0.501936 12.0798 0.501936L191.052 0.501952C195.409 0.501953 197.681 5.68605 194.729 8.89L153.046 54.1302Z" fill="#1F37FF"/>
<g clip-path="url(#clip0_464_6)">
<path d="M116.235 39.2504C115.799 33.5832 113.161 30.0317 110.833 26.8978C108.678 23.9964 106.816 21.4909 106.816 17.795C106.816 17.4981 106.65 17.2268 106.386 17.0907C106.122 16.9539 105.804 16.9763 105.563 17.151C102.067 19.6526 99.1505 23.8689 98.1316 27.8918C97.4242 30.6926 97.3306 33.8413 97.3175 35.9208C94.089 35.2313 93.3576 30.402 93.3499 30.3494C93.3135 30.0989 93.1605 29.8809 92.9378 29.7619C92.7129 29.6444 92.4484 29.6358 92.2204 29.7487C92.0511 29.8307 88.0648 31.8561 87.8329 39.943C87.8167 40.2121 87.8159 40.4819 87.8159 40.7517C87.8159 48.6083 94.2088 55.0008 102.066 55.0008C102.077 55.0015 102.088 55.0031 102.098 55.0008C102.101 55.0008 102.104 55.0008 102.108 55.0008C109.946 54.9783 116.316 48.5944 116.316 40.7517C116.316 40.3567 116.235 39.2504 116.235 39.2504ZM102.066 53.4175C99.4466 53.4175 97.3159 51.1478 97.3159 48.3579C97.3159 48.2628 97.3152 48.1669 97.3221 48.0494C97.3538 46.8728 97.5772 46.0696 97.8223 45.5354C98.2816 46.5219 99.1026 47.4287 100.436 47.4287C100.874 47.4287 101.228 47.0746 101.228 46.6371C101.228 45.51 101.251 44.2097 101.532 43.0361C101.782 41.9956 102.378 40.8885 103.134 40.0011C103.471 41.153 104.126 42.0852 104.767 42.9951C105.683 44.2969 106.63 45.6429 106.796 47.9381C106.806 48.0741 106.816 48.211 106.816 48.3579C106.816 51.1478 104.685 53.4175 102.066 53.4175Z" fill="white"/>
</g>
<defs>
<clipPath id="clip0_464_6">
<rect width="38" height="38" fill="white" transform="translate(83.0659 17.002)"/>
</clipPath>
</defs>
</svg>
